<svg version="1.1" xmlns="http://www.w3.org/2000/svg" xmlns:xlink="http://www.w3.org/1999/xlink" style="" xml:space="preserve" width="598" height="141"><rect id="backgroundrect" width="100%" height="100%" x="0" y="0" fill="none" stroke="none"/>

<g class="currentLayer" style=""><title>Layer 1</title><g id="Camada_x0020_1" class="">
	
		<linearGradient id="SVGID_1_" gradientUnits="userSpaceOnUse" x1="863.4827270507812" y1="291.3606872558594" x2="1122.593994140625" y2="291.3606872558594" gradientTransform="translate(-102.563, -214.411) matrix(-1, 0, 0, 1, 1225.16, 0)">
		<stop offset="0" style="stop-color:#4067B2"/>
		<stop offset="1" style="stop-color:#009AAA"/>
	</linearGradient>
	<path style="fill-rule:evenodd;clip-rule:evenodd;fill:url(#SVGID_1_);" d="M87.6402816772461,91.30900573730469 c3.1429998874664307,0 5.698999881744385,2.556999921798706 5.698999881744385,5.699999809265137 c0,3.1429998874664307 -2.555999994277954,5.699999809265137 -5.698999881744385,5.699999809265137 c-3.1440000534057617,0 -5.701000213623047,-2.556999921798706 -5.701000213623047,-5.699999809265137 C81.93927764892578,93.86601257324219 84.49628448486328,91.30900573730469 87.6402816772461,91.30900573730469 L87.6402816772461,91.30900573730469 zM239.0572738647461,107.04100036621094 c0,-3.1429998874664307 2.556999921798706,-5.701000213623047 5.701000213623047,-5.701000213623047 c3.1429998874664307,0 5.699999809265137,2.556999921798706 5.699999809265137,5.701000213623047 s-2.555999994277954,5.699999809265137 -5.699999809265137,5.699999809265137 C241.6142807006836,112.74101257324219 239.0572738647461,110.18501281738281 239.0572738647461,107.04100036621094 zM0.00028228759765625,110.52400207519531 c-0.004999999888241291,0.4699999988079071 -0.03500000014901161,12.710000038146973 8.88599967956543,21.72800064086914 c6.0320000648498535,6.0970001220703125 14.52299976348877,9.189000129699707 25.23699951171875,9.189000129699707 H193.3272933959961 c8.432000160217285,0 24.3799991607666,-5.09499979019165 24.3799991607666,-24.378999710083008 c0,-19.28499984741211 -15.947999954223633,-24.3799991607666 -24.3799991607666,-24.3799991607666 h-92.00399780273438 c-1.840000033378601,-5.806000232696533 -7.2769999504089355,-10.027000427246094 -13.682999610900879,-10.027000427246094 c-7.914999961853027,0 -14.354000091552734,6.439000129699707 -14.354000091552734,14.352999687194824 c0,7.914000034332275 6.439000129699707,14.352999687194824 14.354000091552734,14.352999687194824 c6.406000137329102,0 11.843000411987305,-4.21999979019165 13.682999610900879,-10.027000427246094 h92.00399780273438 c1.590999960899353,0.01600000075995922 15.72700023651123,0.5910000205039978 15.72700023651123,15.72700023651123 c0,6.633999824523926 -2.496999979019165,11.107999801635742 -7.633999824523926,13.677000045776367 c-3.989000082015991,1.9950000047683716 -8.052000045776367,2.0490000247955322 -8.092000007629395,2.0490000247955322 H34.122276306152344 c-8.317999839782715,0 -14.739999771118164,-2.2269999980926514 -19.084999084472656,-6.619999885559082 c-6.309000015258789,-6.376999855041504 -6.38700008392334,-15.505999565124512 -6.386000156402588,-15.595999717712402 c0,-19.525999069213867 19.54400062561035,-29.302000045776367 30.485000610351562,-29.302000045776367 c1.8270000219345093,0 3.619999885559082,0.24699999392032623 5.328000068664551,0.7360000014305115 c2.25600004196167,0.6460000276565552 4.619999885559082,-0.6299999952316284 5.318999767303467,-2.874000072479248 c3.3380000591278076,-10.715999603271484 13.16100025177002,-17.915000915527344 24.445999145507812,-17.915000915527344 c3.5940001010894775,0 7.234000205993652,0.800000011920929 10.524999618530273,2.312000036239624 c1.0950000286102295,0.5040000081062317 2.3519999980926514,0.5260000228881836 3.4649999141693115,0.06400000303983688 c1.1139999628067017,-0.4620000123977661 1.9850000143051147,-1.3680000305175781 2.4010000228881836,-2.5 c4.392000198364258,-11.920000076293945 15.937000274658203,-19.929000854492188 28.72800064086914,-19.929000854492188 c5.704999923706055,0 11.008000373840332,1.5010000467300415 15.76099967956543,4.460000038146973 c1.0889999866485596,0.6779999732971191 2.424999952316284,0.8370000123977661 3.6440000534057617,0.4350000023841858 c1.218000054359436,-0.4020000100135803 2.196000099182129,-1.3259999752044678 2.6670000553131104,-2.5199999809265137 c5.375999927520752,-13.625 18.357999801635742,-22.429000854492188 33.07400131225586,-22.429000854492188 c19.729999542236328,0 35.78099822998047,16.051000595092773 35.78099822998047,35.779998779296875 v0.4020000100135803 c0,2.1540000438690186 1.5850000381469727,3.9800000190734863 3.7179999351501465,4.2829999923706055 c15.027999877929688,2.132999897003174 26.361000061035156,15.206999778747559 26.361000061035156,30.408000946044922 c0,0.4659999907016754 0.07500000298023224,0.9129999876022339 0.210999995470047,1.3329999446868896 c-5.874000072479248,1.7990000247955322 -10.159000396728516,7.269999980926514 -10.159000396728516,13.725000381469727 c0,7.914000034332275 6.439000129699707,14.352999687194824 14.352999687194824,14.352999687194824 c7.914000034332275,0 14.352999687194824,-6.439000129699707 14.352999687194824,-14.352999687194824 c0,-6.506999969482422 -4.355999946594238,-12.008000373840332 -10.303000450134277,-13.76099967956543 c0.12800000607967377,-0.4099999964237213 0.1979999989271164,-0.8450000286102295 0.1979999989271164,-1.2970000505447388 c0,-18.246999740600586 -12.746999740600586,-34.10300064086914 -30.19300079345703,-38.28900146484375 c-1.6449999809265137,-23.011999130249023 -20.893999099731445,-41.236000061035156 -44.31999969482422,-41.236000061035156 c-16.6560001373291,0 -31.52899932861328,9.081000328063965 -39.10599899291992,23.503999710083008 c-4.986000061035156,-2.2920000553131104 -10.362000465393066,-3.4509999752044678 -16.038999557495117,-3.4509999752044678 c-14.92199993133545,0 -28.527000427246094,8.512999534606934 -35.10499954223633,21.577999114990234 c-3.246999979019165,-1.003999948501587 -6.644999980926514,-1.5260000228881836 -10.013999938964844,-1.5260000228881836 c-13.758999824523926,0 -25.898000717163086,8.012999534606934 -31.322999954223633,20.30299949645996 c-1.2419999837875366,-0.16699999570846558 -2.502000093460083,-0.24899999797344208 -3.7699999809265137,-0.24899999797344208 c-8.305000305175781,0 -18.011999130249023,3.7300000190734863 -25.33799934387207,9.736000061035156 C4.900276184082031,89.64900207519531 0.00028228759765625,99.65400695800781 0.00028228759765625,110.52400207519531 L0.00028228759765625,110.52400207519531 z" id="svg_1"/>
	<linearGradient id="SVGID_2_" gradientUnits="userSpaceOnUse" x1="377.66839599609375" y1="285.131591796875" x2="700.1840209960938" y2="285.131591796875" gradientTransform="translate(-102.563, -214.411)">
		<stop offset="0" style="stop-color:#4067B2"/>
		<stop offset="1" style="stop-color:#009AAA"/>
	</linearGradient>
	<path style="fill-rule:evenodd;clip-rule:evenodd;fill:url(#SVGID_2_);" d="M275.1052780151367,34.199005126953125 h15.218000411987305 l14.40999984741211,61.202999114990234 V34.199005126953125 h14.097999572753906 v105.51699829101562 h-15.218000411987305 l-13.878000259399414,-59.275001525878906 v59.275001525878906 h-14.630999565124512 V34.199005126953125 zM331.73726654052734,34.199005126953125 h15.218000411987305 v105.51699829101562 H331.73726654052734 V34.199005126953125 zM331.1502914428711,5.8560028076171875 h16.465999603271484 v16.447999954223633 h-16.465999603271484 V5.8560028076171875 zM387.2492904663086,53.62101745605469 c-0.31200000643730164,-4.019999980926514 -2.515000104904175,-6.058000087738037 -6.552999973297119,-6.09499979019165 h-0.10999999940395355 c-4.36899995803833,0 -6.572000026702881,2.38700008392334 -6.572000026702881,7.158999919891357 v85.02999877929688 h-15.218000411987305 v-85.02999877929688 c0,-14.777000427246094 7.288000106811523,-22.156999588012695 21.844999313354492,-22.156999588012695 c5.947999954223633,0 10.70199966430664,1.2480000257492065 14.244999885559082,3.7079999446868896 c3.5250000953674316,-2.4600000381469727 8.241999626159668,-3.7079999446868896 14.208000183105469,-3.7079999446868896 c14.576000213623047,0 21.881999969482422,7.380000114440918 21.881999969482422,22.156999588012695 v85.02999877929688 H415.75728607177734 v-85.02999877929688 c0,-4.736000061035156 -2.203000068664551,-7.123000144958496 -6.609000205993652,-7.158999919891357 h-0.10999999940395355 c-4.019999980926514,0 -6.185999870300293,2.0380001068115234 -6.517000198364258,6.09499979019165 v86.09500122070312 h-15.27299976348877 L387.2492904663086,53.62101745605469 L387.2492904663086,53.62101745605469 zM458.0152816772461,119.22901916503906 c0,4.7729997634887695 2.2209999561309814,7.140999794006348 6.682000160217285,7.140999794006348 c4.406000137329102,0 6.609000205993652,-2.368000030517578 6.609000205993652,-7.140999794006348 v-64.48799896240234 c0,-4.7729997634887695 -2.2209999561309814,-7.158999919891357 -6.664000034332275,-7.158999919891357 c-4.38700008392334,0 -6.590000152587891,2.368000030517578 -6.626999855041504,7.104000091552734 V119.22901916503906 zM486.52425384521484,119.22901916503906 c0,14.795999526977539 -7.269000053405762,22.211999893188477 -21.82699966430664,22.211999893188477 c-14.593999862670898,-0.03700000047683716 -21.899999618530273,-7.453000068664551 -21.899999618530273,-22.211999893188477 V0 h15.218000411987305 v35.92499923706055 c3.010999917984009,-2.257999897003174 6.939000129699707,-3.3959999084472656 11.78499984741211,-3.3959999084472656 c11.142999649047852,0.03700000047683716 16.722999572753906,7.434999942779541 16.722999572753906,22.211999893188477 V119.22901916503906 L486.52425384521484,119.22901916503906 zM542.0722885131836,119.22901916503906 c0,14.758999824523926 -7.288000106811523,22.174999237060547 -21.881999969482422,22.211999893188477 c-14.557000160217285,0 -21.844999313354492,-7.415999889373779 -21.844999313354492,-22.211999893188477 v-85.02999877929688 h15.218000411987305 v85.02999877929688 c0,4.7729997634887695 2.203000068664551,7.140999794006348 6.626999855041504,7.140999794006348 c4.441999912261963,0 6.664000034332275,-2.368000030517578 6.664000034332275,-7.140999794006348 v-85.02999877929688 h15.218000411987305 V119.22901916503906 zM553.8942489624023,54.68598937988281 c0,-14.777000427246094 7.288000106811523,-22.156999588012695 21.844999313354492,-22.156999588012695 c14.593999862670898,0 21.881999969482422,7.380000114440918 21.881999969482422,22.156999588012695 v14.208000183105469 h-15.218000411987305 v-14.208000183105469 c0,-4.736000061035156 -2.203000068664551,-7.123000144958496 -6.609000205993652,-7.158999919891357 h-0.10999999940395355 c-4.36899995803833,0 -6.572000026702881,2.38700008392334 -6.572000026702881,7.158999919891357 v9.581999778747559 c0,4.681000232696533 4.754000186920166,10.444999694824219 14.262999534606934,17.256000518798828 c9.491000175476074,6.77400016784668 14.244999885559082,14.906000137329102 14.244999885559082,24.360000610351562 v13.345999717712402 c0,14.795999526977539 -7.269000053405762,22.211999893188477 -21.82699966430664,22.211999893188477 c-14.593999862670898,-0.03700000047683716 -21.899999618530273,-7.453000068664551 -21.899999618530273,-22.211999893188477 v-14.208000183105469 h15.218000411987305 v14.208000183105469 c0,4.7729997634887695 2.2209999561309814,7.140999794006348 6.682000160217285,7.140999794006348 c4.406000137329102,0 6.609000205993652,-2.368000030517578 6.609000205993652,-7.140999794006348 v-12.041999816894531 c0,-5.103000164031982 -4.755000114440918,-11.050999641418457 -14.244999885559082,-17.861000061035156 c-9.508999824523926,-6.77400016784668 -14.262999534606934,-15.034000396728516 -14.262999534606934,-24.7450008392334 V54.68598937988281 L553.8942489624023,54.68598937988281 z" id="svg_2"/>
</g></g></svg>